<svg xmlns="http://www.w3.org/2000/svg" viewBox="0 0 980 300" role="img" aria-labelledby="title desc">
  <title id="title">Vital Logix</title>
  <desc id="desc">Vital Logix emblem in turquoise and silver tones.</desc>
  <defs>
    <linearGradient id="plateFill" x1="0" y1="0" x2="1" y2="1">
      <stop offset="0%" stop-color="#1f5689" />
      <stop offset="100%" stop-color="#183f68" />
    </linearGradient>
    <linearGradient id="plateStroke" x1="0" y1="0" x2="1" y2="1">
      <stop offset="0%" stop-color="#9ce8e4" />
      <stop offset="100%" stop-color="#52bfc0" />
    </linearGradient>
    <linearGradient id="silverText" x1="0" y1="0" x2="1" y2="1">
      <stop offset="0%" stop-color="#d8f4ff" />
      <stop offset="100%" stop-color="#9ec9d9" />
    </linearGradient>
    <linearGradient id="tealAccent" x1="0" y1="0" x2="1" y2="1">
      <stop offset="0%" stop-color="#7ce7dd" />
      <stop offset="100%" stop-color="#3fb0be" />
    </linearGradient>
    <filter id="softGlow" x="-20%" y="-20%" width="140%" height="140%">
      <feDropShadow dx="0" dy="0" stdDeviation="5" flood-color="#72dcd6" flood-opacity="0.5" />
    </filter>
  </defs>

  <g transform="translate(20,26)">
    <path d="M40 28h840c30 0 54 24 54 54v126c0 30-24 54-54 54H462l-86 18-86-18H40c-30 0-54-24-54-54V82c0-30 24-54 54-54z" fill="url(#plateFill)" opacity="0.9" />
    <path d="M40 28h840c30 0 54 24 54 54v126c0 30-24 54-54 54H462l-86 18-86-18H40c-30 0-54-24-54-54V82c0-30 24-54 54-54z" fill="none" stroke="url(#plateStroke)" stroke-width="8" filter="url(#softGlow)" />

    <g transform="translate(22,20)">
      <circle cx="110" cy="105" r="76" fill="none" stroke="url(#tealAccent)" stroke-width="12" />
      <path d="M110 60c-25 0-45 20-45 45 0 32 34 58 45 84 11-26 45-52 45-84 0-25-20-45-45-45z" fill="none" stroke="url(#tealAccent)" stroke-width="10" />
      <path d="M80 95h20l14 14 17-23 20 20" fill="none" stroke="#9ef2f0" stroke-width="8" stroke-linecap="round" stroke-linejoin="round" />
      <circle cx="80" cy="95" r="6" fill="#a4f7f2" />
      <circle cx="114" cy="109" r="6" fill="#a4f7f2" />
      <circle cx="148" cy="86" r="6" fill="#a4f7f2" />
      <circle cx="168" cy="106" r="6" fill="#a4f7f2" />
    </g>

      <g transform="translate(250,82)">
        <text x="0" y="76" font-family="'Segoe UI', Arial, sans-serif" font-size="74" font-weight="700" letter-spacing="0.2" fill="url(#silverText)">VitalLogix</text>
      <text x="4" y="126" font-family="'Segoe UI', Arial, sans-serif" font-size="44" font-weight="600" letter-spacing="1.2" fill="url(#tealAccent)">TU FARMACIA DIGITAL II</text>
    </g>
  </g>
</svg>
